<svg width="960" height="160" viewBox="0 0 960 160" xmlns="http://www.w3.org/2000/svg">
  <style>
    text {
      font-family: Consolas, "Courier New", monospace;
      font-size: 14px;
      text-anchor: middle;
      fill: #000;
    }
    .line {
      stroke: #999;
      stroke-width: 1;
    }
  </style>

  <g class="line">
    <line x1="495" y1="35" x2="100" y2="70" /> 
     <line x1="495" y1="35" x2="170" y2="70" /> 
    <line x1="495" y1="35" x2="240" y2="70" /> 
    <line x1="495" y1="35" x2="310" y2="70" /> 
    <line x1="495" y1="35" x2="390" y2="70" /> 
    <line x1="495" y1="35" x2="470" y2="70" /> 
    <line x1="495" y1="35" x2="540" y2="70" /> 
    <line x1="495" y1="35" x2="610" y2="70" /> 
    <line x1="495" y1="35" x2="680" y2="70" /> 
    <line x1="495" y1="35" x2="750" y2="70" /> 
    <line x1="495" y1="35" x2="820" y2="70" /> 
    <line x1="495" y1="35" x2="890" y2="70" /> 
    <line x1="100" y1="85" x2="70" y2="130" /> 
    <line x1="100" y1="85" x2="130" y2="130" /> 
    <line x1="240" y1="85" x2="210" y2="130" /> 
    <line x1="240" y1="85" x2="270" y2="130" /> 
    <line x1="390" y1="85" x2="350" y2="130" /> 
    <line x1="390" y1="85" x2="430" y2="130" /> 
    <line x1="820" y1="85" x2="820" y2="130" /> </g>

  <text x="495" y="30" font-size="20">/</text>

  <text x="100" y="80">bin</text>
  <text x="170" y="80">boot</text>
  <text x="240" y="80">dev</text>
  <text x="310" y="80">etc</text>
  <text x="390" y="80">home</text>
  <text x="470" y="80">lib</text>
  <text x="540" y="80">mnt</text> <text x="610" y="80">opt</text>
  <text x="680" y="80">proc</text>
  <text x="750" y="80">root</text>
  <text x="820" y="80">usr</text>
  <text x="890" y="80">var</text>

  <text x="70" y="145">ls</text>
  <text x="130" y="145">cp</text>

  <text x="210" y="145">zero</text>
  <text x="270" y="145">null</text>

  <text x="350" y="145">alice</text>
  <text x="430" y="145">bob</text>

  <text x="820" y="145">bin</text>

</svg>